<?xml version="1.0" standalone="no"?>
<!DOCTYPE svg PUBLIC "-//W3C//DTD SVG 20010904//EN"
 "http://www.w3.org/TR/2001/REC-SVG-20010904/DTD/svg10.dtd">
<svg version="1.0" xmlns="http://www.w3.org/2000/svg"
 width="198.000000pt" height="94.000000pt" viewBox="0 0 198.000000 94.000000"
 preserveAspectRatio="xMidYMid meet">

<g transform="translate(0.000000,94.000000) scale(0.100000,-0.100000)"
fill="#000000" stroke="none">
<path d="M1162 912 c-16 -16 -31 -35 -34 -43 -3 -8 -16 -13 -34 -11 -21 2 -35
-5 -50 -24 -21 -26 -22 -26 -54 -9 -23 12 -46 15 -74 12 -22 -3 -48 -1 -59 5
-40 21 -137 -44 -137 -91 1 -34 15 -51 70 -87 l45 -29 -58 -3 -57 -3 2 -106
c2 -79 0 -107 -10 -111 -7 -2 -27 -25 -44 -50 -52 -76 -95 -109 -163 -126 -49
-12 -69 -13 -98 -4 -20 6 -37 16 -37 21 0 32 237 434 266 450 8 4 28 35 45 68
24 48 28 64 18 75 -6 8 -18 14 -27 14 -9 0 -36 10 -60 22 -36 17 -64 21 -141
22 -97 1 -128 -7 -221 -59 -38 -21 -129 -99 -129 -111 -1 -6 -10 -22 -20 -36
-30 -38 -71 -148 -77 -208 -5 -41 -1 -71 15 -120 27 -80 57 -146 70 -154 6 -4
5 -20 -3 -44 -31 -88 58 -155 137 -103 28 18 30 18 66 0 57 -27 240 -22 297 8
23 12 48 28 56 35 7 7 28 23 45 35 l32 23 3 -48 3 -47 88 -3 c86 -3 87 -2 97
23 6 15 10 131 10 264 0 218 -2 239 -18 254 -10 10 -28 17 -40 17 -20 0 -19 2
8 32 16 17 34 44 41 60 13 32 27 34 89 11 57 -21 56 -20 39 -40 -34 -40 -77
-187 -73 -243 3 -31 22 -105 33 -128 4 -9 16 -35 27 -57 10 -22 27 -51 36 -64
13 -17 15 -28 8 -35 -15 -15 -12 -35 10 -66 25 -35 69 -46 106 -27 23 12 31
12 58 -2 23 -12 61 -16 151 -16 132 0 145 4 242 82 l42 33 3 -47 3 -48 92 -3
c81 -2 92 -1 97 15 2 10 6 130 8 266 4 298 12 279 -126 275 l-90 -3 3 -101 3
-101 -34 -37 c-102 -113 -125 -132 -187 -149 -55 -15 -65 -16 -97 -2 l-35 14
43 63 c24 35 75 115 113 178 38 63 93 151 122 194 46 68 54 86 51 119 -2 24
-9 43 -18 47 -8 4 -30 14 -48 23 -45 23 -165 41 -224 34 -26 -3 -67 -15 -92
-26 -57 -26 -58 -26 -50 5 5 18 1 29 -12 39 -26 20 -29 19 -62 -13z m18 -82
c-20 -40 -23 -42 -56 -36 -30 6 -35 4 -46 -19 -13 -28 -40 -32 -78 -10 -14 8
-37 14 -53 15 -23 0 -31 -8 -54 -55 -15 -30 -33 -55 -40 -55 -15 0 -17 26 -3
35 6 4 21 28 35 54 13 27 30 51 38 54 8 3 33 -3 57 -14 55 -25 64 -24 84 6 13
20 22 23 45 19 24 -5 32 -1 47 22 39 62 57 49 24 -16z m-585 4 c40 -10 62 -32
41 -40 -9 -3 -16 -13 -16 -21 0 -12 -9 -14 -47 -9 -109 15 -176 11 -223 -14
-44 -22 -80 -55 -80 -72 0 -4 -6 -8 -14 -8 -8 0 -20 -17 -27 -37 -6 -21 -18
-42 -25 -46 -8 -4 -14 -23 -14 -42 0 -19 -4 -37 -10 -40 -13 -8 -13 -102 0
-107 6 -2 13 -20 16 -41 5 -40 10 -49 59 -98 53 -52 108 -79 167 -80 88 -2
153 18 200 63 10 10 22 18 28 18 6 0 10 7 10 15 0 7 6 18 14 22 7 4 18 18 24
30 13 25 41 22 68 -8 14 -15 14 -20 3 -33 -8 -7 -32 -35 -54 -61 -22 -26 -58
-56 -80 -67 -22 -11 -51 -26 -65 -34 -14 -7 -33 -14 -42 -14 -9 0 -20 -4 -23
-10 -11 -17 -106 -11 -169 12 -97 34 -138 67 -181 145 -15 26 -36 60 -46 75
-11 14 -16 33 -13 41 3 8 1 18 -5 22 -13 8 -15 151 -2 159 5 4 12 24 16 46 4
22 10 40 13 40 4 0 13 12 19 28 7 15 29 43 48 62 20 19 43 43 53 53 9 9 22 17
28 17 6 0 17 6 23 14 7 8 27 17 46 20 19 4 35 10 35 14 0 8 181 -3 225 -14z
m962 1 c45 -10 55 -25 34 -52 -17 -21 -22 -21 -110 -13 -127 12 -167 -1 -240
-78 -24 -26 -50 -61 -57 -79 -7 -17 -18 -33 -23 -35 -16 -5 -26 -165 -12 -182
7 -8 10 -19 7 -24 -8 -13 29 -81 64 -117 61 -63 143 -87 245 -72 73 12 127 49
190 131 24 31 30 34 49 24 45 -23 45 -38 4 -82 -18 -18 -38 -42 -44 -52 -9
-15 -99 -67 -179 -101 -43 -19 -111 -16 -184 9 -36 12 -70 26 -76 30 -52 39
-90 78 -102 103 -16 35 -35 68 -45 75 -3 3 -10 19 -14 35 -4 17 -10 35 -14 40
-12 16 7 187 24 220 9 17 16 35 16 42 0 7 6 16 13 20 6 4 17 17 23 28 6 11 24
27 42 35 17 8 35 25 41 38 6 12 17 22 25 22 8 0 16 5 18 12 11 32 201 46 305
23z m-707 -40 c0 -10 -40 -85 -45 -85 -2 0 -11 13 -19 29 -12 23 -13 31 -3 39
22 17 67 29 67 17z m584 -77 c-12 -20 -85 -126 -145 -209 -30 -42 -59 -85 -65
-95 -34 -56 -36 80 -2 157 25 60 103 133 155 147 54 14 65 14 57 0z m-994 -4
c0 -3 -14 -24 -31 -45 -17 -22 -43 -63 -58 -92 -40 -75 -92 -171 -98 -177 -10
-11 -22 28 -21 70 1 89 66 189 153 238 22 12 55 16 55 6z m450 -365 l0 -230
-47 3 -48 3 -3 44 c-2 32 2 52 16 70 35 48 38 111 6 111 -25 0 -38 44 -41 138
l-3 92 60 0 60 0 0 -231z m968 4 l-3 -228 -50 0 c-49 0 -50 0 -53 33 -2 23 7
54 30 98 l33 65 -25 20 c-14 10 -31 24 -37 29 -9 7 -13 43 -13 110 l0 100 60
0 60 0 -2 -227z"/>
<path d="M1748 829 c-48 -25 -71 -59 -63 -92 17 -67 122 -101 178 -57 49 39
32 121 -33 155 -36 19 -37 19 -82 -6z m76 -45 c9 -8 16 -29 16 -45 0 -22 -6
-30 -25 -35 -34 -8 -53 1 -65 31 -15 40 -1 59 47 64 6 0 19 -6 27 -15z"/>
</g>
</svg>
